<svg xmlns="http://www.w3.org/2000/svg" width="200" height="200" class="icon" p-id="1543" t="1699574162110" version="1.1" viewBox="0 0 1024 1024"><path fill="#FD8E66" d="M512 512m-512 0a512 512 0 1 0 1024 0 512 512 0 1 0-1024 0Z" p-id="1544"/><path fill="#FFF" d="M377.745 354.306h63.05l-78.638 315.388h-63.05l78.638-315.388zM518.387 354.306h103.519c69.926 0 117.527 24.3 98.942 98.896-17.958 72.017-80.148 104.401-147.89 104.401H530.77L502.8 669.694h-63.05l78.637-315.388z m62.702 153.443c43.489 0 68.927-18.329 77.964-54.547 9.153-36.659-10.779-49.018-54.222-49.018h-35.823l-25.833 103.565h37.914z" p-id="1545"/></svg>