<svg xmlns="http://www.w3.org/2000/svg" width="200" height="200" class="icon" p-id="8081" t="1697727436066" version="1.1" viewBox="0 0 1024 1024"><path d="M892.5 160h-760a4 4 0 0 0-4 4v64a4 4 0 0 0 4 4h760a4 4 0 0 0 4-4v-64a4 4 0 0 0-4-4z m0 210.7h-440a4 4 0 0 0-4 4v64a4 4 0 0 0 4 4h440a4 4 0 0 0 4-4v-64a4 4 0 0 0-4-4z m0 210.6h-440a4 4 0 0 0-4 4v64a4 4 0 0 0 4 4h440a4 4 0 0 0 4-4v-64a4 4 0 0 0-4-4z m0 210.7h-760a4 4 0 0 0-4 4v64a4 4 0 0 0 4 4h760a4 4 0 0 0 4-4v-64a4 4 0 0 0-4-4z m-527-140.8a4 4 0 0 0 6-3.5V376.3a4 4 0 0 0-6-3.5l-235 135.7a4 4 0 0 0 0 7z" p-id="8082"/></svg>